# xmcd
#
# Track frame offsets:
#	150
#	18586
#	35917
#	52345
#	71517
#	87940
#	104934
#	121793
#	138700
#	156206
#
# Disc length: 2250 seconds
#
# Revision: 2
# Processed by: cddbd v1.5.2PL0 Copyright (c) Steve Scherf et al.
# Submitted via: EasyCDDAExtractor 15.1.0.1
#
DISCID=9808c80a
DTITLE=หญิง ธิติกานต์ - ตำแหน่งแทนคือแฟนน้อย
DYEAR=2011
DGENRE=Country
TTITLE0=ตำแหน่งแทนคือแฟนน้อย
TTITLE1=ฆาตกรดีเด่น
TTITLE2=กลัวความเหงา
TTITLE3=จะมีพรุ่งนี้ให้ฉันหรือเปล่า
TTITLE4=มือที่สาม (โดยไม่ได้ตั้งใจ)
TTITLE5=ชานอ้อย
TTITLE6=ผู้หญิงดั่งดอกไม้
TTITLE7=ดาวหายใจหาย
TTITLE8=ให้ฉันตายดีกว่า
TTITLE9=ใจน้อนคอยนาน
EXTD=
EXTT0=
EXTT1=
EXTT2=
EXTT3=
EXTT4=
EXTT5=
EXTT6=
EXTT7=
EXTT8=
EXTT9=
PLAYORDER=
